<svg width="285" height="204" viewBox="0 0 285 204" fill="none" xmlns="http://www.w3.org/2000/svg">
<g clip-path="url(#clip0)">
<path opacity="0.1" d="M255.924 173.258C253.799 174.358 251.573 175.308 249.379 176.24C241.265 179.679 233.026 183.153 224.311 184.334C207.937 186.538 191.043 180.542 174.957 184.284C161.483 187.407 150.34 196.979 137.176 201.242C131.055 203.224 124.687 204 118.262 204H117.432C116.641 204 115.853 203.97 115.062 203.94C108.548 203.694 102.006 202.741 95.6197 201.491C75.4549 197.594 54.9319 190.45 39.515 177.299C84.4048 169.058 176.873 156.413 255.924 173.258Z" fill="#252223"/>
<path opacity="0.3" d="M271.571 74.6451V55.4592H260.23V74.6451H246.801V44.9669H236.953V22.7832H228.895V0H212.183V22.7832H204.126V44.9669H194.576V18.2866H189.204V4.79647H185.921V18.2866H166.822V103.424H152.199V94.4306H143.246V103.424H128.623V74.6451H102.361V55.4592H91.0209V74.6451H90.4241V111.518H78.4869V89.9339H64.1623V111.518H52.2251V44.9669H42.9738V22.7832H8.95288V44.9669H0V162.181H52.2251H90.4241H128.623H166.822H194.576H246.801H285V74.6451H271.571Z" fill="#91DC57"/>
<path opacity="0.4" d="M18.2042 51.8619H5.67017V59.0566H18.2042V51.8619Z" fill="white"/>
<path opacity="0.4" d="M33.7225 59.0566H46.2565V51.8619H33.7225V59.0566Z" fill="white"/>
<path opacity="0.4" d="M18.2042 65.9515H5.67017V73.1462H18.2042V65.9515Z" fill="white"/>
<path opacity="0.4" d="M33.7225 73.1462H46.2565V65.9515H33.7225V73.1462Z" fill="white"/>
<path opacity="0.4" d="M18.2042 80.0411H5.67017V87.2358H18.2042V80.0411Z" fill="white"/>
<path opacity="0.4" d="M33.7225 87.2358H46.2565V80.0411H33.7225V87.2358Z" fill="white"/>
<path opacity="0.4" d="M18.2042 94.1308H5.67017V101.326H18.2042V94.1308Z" fill="white"/>
<path opacity="0.4" d="M33.7225 101.326H46.2565V94.1308H33.7225V101.326Z" fill="white"/>
<path opacity="0.4" d="M18.2042 108.22H5.67017V115.415H18.2042V108.22Z" fill="white"/>
<path opacity="0.4" d="M33.7225 115.415H46.2565V108.22H33.7225V115.415Z" fill="white"/>
<path opacity="0.4" d="M18.2042 122.31H5.67017V129.505H18.2042V122.31Z" fill="white"/>
<path opacity="0.4" d="M33.7225 129.505H46.2565V122.31H33.7225V129.505Z" fill="white"/>
<path opacity="0.4" d="M18.2042 136.4H5.67017V143.594H18.2042V136.4Z" fill="white"/>
<path opacity="0.4" d="M33.7225 143.594H46.2565V136.4H33.7225V143.594Z" fill="white"/>
<path opacity="0.4" d="M85.9476 118.713H56.7016V122.31H85.9476V118.713Z" fill="white"/>
<path opacity="0.4" d="M85.9476 124.109H56.7016V127.706H85.9476V124.109Z" fill="white"/>
<path opacity="0.4" d="M85.9476 129.505H56.7016V133.102H85.9476V129.505Z" fill="white"/>
<path opacity="0.4" d="M162.346 120.511H133.099V124.109H162.346V120.511Z" fill="white"/>
<path opacity="0.4" d="M162.346 125.907H133.099V129.505H162.346V125.907Z" fill="white"/>
<path opacity="0.4" d="M162.346 131.303H133.099V134.901H162.346V131.303Z" fill="white"/>
<path opacity="0.4" d="M85.9476 134.901H56.7016V138.498H85.9476V134.901Z" fill="white"/>
<path opacity="0.4" d="M85.9476 140.297H56.7016V143.894H85.9476V140.297Z" fill="white"/>
<path opacity="0.4" d="M85.9476 145.693H56.7016V149.29H85.9476V145.693Z" fill="white"/>
<path opacity="0.4" d="M104.749 81.54H96.6911V92.0323H104.749V81.54Z" fill="white"/>
<path opacity="0.4" d="M114.298 92.0323H122.356V81.54H114.298V92.0323Z" fill="white"/>
<path opacity="0.4" d="M104.749 98.3277H96.6911V108.82H104.749V98.3277Z" fill="white"/>
<path opacity="0.4" d="M114.298 108.82H122.356V98.3277H114.298V108.82Z" fill="white"/>
<path opacity="0.4" d="M104.749 115.115H96.6911V125.608H104.749V115.115Z" fill="white"/>
<path opacity="0.4" d="M114.298 125.608H122.356V115.115H114.298V125.608Z" fill="white"/>
<path opacity="0.4" d="M104.749 131.903H96.6911V142.395H104.749V131.903Z" fill="white"/>
<path opacity="0.4" d="M114.298 142.395H122.356V131.903H114.298V142.395Z" fill="white"/>
<path opacity="0.4" d="M177.565 25.1815H166.822V38.9713H177.565V25.1815Z" fill="white"/>
<path opacity="0.4" d="M177.565 44.9669H166.822V58.7568H177.565V44.9669Z" fill="white"/>
<path opacity="0.4" d="M177.565 64.7524H166.822V78.5422H177.565V64.7524Z" fill="white"/>
<path opacity="0.4" d="M177.565 84.5378H166.822V98.3277H177.565V84.5378Z" fill="white"/>
<path opacity="0.4" d="M177.565 104.323H166.822V118.113H177.565V104.323Z" fill="white"/>
<path opacity="0.4" d="M177.565 124.109H166.822V137.899H177.565V124.109Z" fill="white"/>
<path opacity="0.4" d="M240.683 53.3608H200.694V65.0522H240.683V53.3608Z" fill="white"/>
<path opacity="0.4" d="M240.832 78.5422H200.843V90.2336H240.832V78.5422Z" fill="white"/>
<path opacity="0.4" d="M240.982 103.724H200.992V115.415H240.982V103.724Z" fill="white"/>
<path opacity="0.4" d="M241.131 128.905H201.141V140.597H241.131V128.905Z" fill="white"/>
<path opacity="0.4" d="M14.3246 29.0786H8.95288V40.4702H14.3246V29.0786Z" fill="white"/>
<path opacity="0.4" d="M285 81.54H271.571V98.9273H285V81.54Z" fill="white"/>
<path opacity="0.4" d="M285 106.722H271.571V124.109H285V106.722Z" fill="white"/>
<path opacity="0.4" d="M285 131.903H271.571V149.29H285V131.903Z" fill="white"/>
<path d="M14.823 143.759C14.823 143.759 -8.67236 157.999 34.6387 179.922C34.6387 179.922 44.1884 162.127 33.63 147.617C31.5821 144.788 28.5723 142.812 25.1709 142.064C21.7696 141.315 18.213 141.846 15.1751 143.555L14.823 143.759Z" fill="#91DC57"/>
<path d="M15.0945 143.46C15.0945 143.46 35.1997 158.913 34.6387 179.922" stroke="#535461" stroke-miterlimit="10"/>
<path d="M35.7309 180.731C35.7309 180.731 28.3687 155.622 37.1127 137.14C40.7804 129.385 41.9979 120.676 40.3029 112.258C39.4933 108.262 38.3195 104.348 36.7963 100.567" stroke="#535461" stroke-width="2" stroke-miterlimit="10"/>
<path d="M42.2278 88.9026C42.2278 91.9784 36.683 100.894 36.683 100.894C36.683 100.894 31.1352 91.9694 31.1352 88.9026C31.118 88.1601 31.2488 87.4216 31.5198 86.7306C31.7908 86.0396 32.1966 85.41 32.7134 84.8787C33.2301 84.3475 33.8473 83.9254 34.5287 83.6372C35.2102 83.349 35.9421 83.2005 36.6815 83.2005C37.4208 83.2005 38.1528 83.349 38.8342 83.6372C39.5156 83.9254 40.1329 84.3475 40.6496 84.8787C41.1663 85.41 41.5721 86.0396 41.8431 86.7306C42.1141 87.4216 42.2449 88.1601 42.2278 88.9026Z" fill="#91DC57"/>
<path d="M51.4074 105.948C49.7422 108.532 40.2581 112.993 40.2581 112.993C40.2581 112.993 40.4282 102.474 42.0935 99.8925C42.9023 98.6734 44.1565 97.8232 45.5847 97.526C47.0128 97.2288 48.5 97.5085 49.7245 98.3045C50.9489 99.1006 51.812 100.349 52.1269 101.779C52.4419 103.21 52.1834 104.708 51.4074 105.948V105.948Z" fill="#91DC57"/>
<path d="M51.0046 135.078C48.271 136.463 37.8409 135.503 37.8409 135.503C37.8409 135.503 43.2752 126.51 46.0118 125.125C47.3232 124.482 48.8339 124.384 50.2168 124.852C51.5997 125.32 52.7434 126.316 53.4001 127.625C54.0568 128.934 54.1736 130.45 53.7252 131.845C53.2768 133.24 52.2993 134.402 51.0046 135.078V135.078Z" fill="#91DC57"/>
<path d="M45.7611 157.049C43.2991 158.877 32.86 159.705 32.86 159.705C32.86 159.705 36.7008 149.917 39.1659 148.088C40.3505 147.244 41.8176 146.9 43.2519 147.13C44.6862 147.361 45.9734 148.147 46.837 149.32C47.7006 150.493 48.0716 151.96 47.8705 153.405C47.6693 154.85 46.912 156.158 45.7611 157.049V157.049Z" fill="#91DC57"/>
<path d="M28.6104 113.589C30.8068 115.733 41.0459 117.954 41.0459 117.954C41.0459 117.954 38.5391 107.741 36.3397 105.597C35.8173 105.088 35.2001 104.686 34.5232 104.416C33.8463 104.146 33.1231 104.012 32.3949 104.023C31.6666 104.033 30.9475 104.188 30.2787 104.478C29.6099 104.767 29.0045 105.186 28.497 105.711C27.9895 106.236 27.5898 106.856 27.3209 107.536C27.0519 108.216 26.9189 108.942 26.9294 109.674C26.9399 110.405 27.0938 111.128 27.3822 111.8C27.6707 112.471 28.088 113.08 28.6104 113.589V113.589Z" fill="#91DC57"/>
<path d="M22.803 139.362C25.5366 140.75 35.9667 139.79 35.9667 139.79C35.9667 139.79 30.5323 130.797 27.7987 129.412C27.1467 129.065 26.4323 128.852 25.6974 128.786C24.9625 128.72 24.2218 128.802 23.5187 129.027C22.8157 129.251 22.1643 129.615 21.6029 130.096C21.0414 130.577 20.581 131.165 20.2487 131.827C19.9165 132.489 19.7189 133.211 19.6677 133.95C19.6165 134.689 19.7127 135.432 19.9505 136.133C20.1884 136.835 20.5632 137.482 21.053 138.036C21.5428 138.59 22.1377 139.041 22.803 139.362V139.362Z" fill="#91DC57"/>
<path d="M20.5797 165.191C23.0417 167.019 33.4838 167.847 33.4838 167.847C33.4838 167.847 29.64 158.059 27.175 156.23C25.9903 155.386 24.5233 155.042 23.0889 155.272C21.6546 155.503 20.3674 156.289 19.5038 157.462C18.6402 158.635 18.2692 160.102 18.4704 161.547C18.6715 162.992 19.4288 164.3 20.5797 165.191V165.191Z" fill="#91DC57"/>
<path opacity="0.25" d="M42.2278 88.9026C42.2278 91.9784 36.683 100.894 36.683 100.894C36.683 100.894 31.1352 91.9694 31.1352 88.9026C31.118 88.1601 31.2488 87.4216 31.5198 86.7306C31.7908 86.0396 32.1966 85.41 32.7134 84.8787C33.2301 84.3475 33.8473 83.9254 34.5287 83.6372C35.2102 83.349 35.9421 83.2005 36.6815 83.2005C37.4208 83.2005 38.1528 83.349 38.8342 83.6372C39.5156 83.9254 40.1329 84.3475 40.6496 84.8787C41.1663 85.41 41.5721 86.0396 41.8431 86.7306C42.1141 87.4216 42.2449 88.1601 42.2278 88.9026Z" fill="black"/>
<path opacity="0.25" d="M51.4074 105.948C49.7422 108.532 40.2581 112.993 40.2581 112.993C40.2581 112.993 40.4282 102.474 42.0935 99.8925C42.9023 98.6734 44.1565 97.8232 45.5847 97.526C47.0128 97.2288 48.5 97.5085 49.7245 98.3045C50.9489 99.1006 51.812 100.349 52.1269 101.779C52.4419 103.21 52.1834 104.708 51.4074 105.948V105.948Z" fill="black"/>
<path opacity="0.25" d="M51.0046 135.078C48.271 136.463 37.8409 135.503 37.8409 135.503C37.8409 135.503 43.2752 126.51 46.0118 125.125C47.3232 124.482 48.8339 124.384 50.2168 124.852C51.5997 125.32 52.7434 126.316 53.4001 127.625C54.0568 128.934 54.1736 130.45 53.7252 131.845C53.2768 133.24 52.2993 134.402 51.0046 135.078V135.078Z" fill="black"/>
<path opacity="0.25" d="M45.7611 157.049C43.2991 158.877 32.86 159.705 32.86 159.705C32.86 159.705 36.7008 149.917 39.1659 148.088C40.3505 147.244 41.8176 146.9 43.2519 147.13C44.6862 147.361 45.9734 148.147 46.837 149.32C47.7006 150.493 48.0716 151.96 47.8705 153.405C47.6693 154.85 46.912 156.158 45.7611 157.049V157.049Z" fill="black"/>
<path opacity="0.25" d="M28.6104 113.589C30.8068 115.733 41.0459 117.954 41.0459 117.954C41.0459 117.954 38.5391 107.741 36.3397 105.597C35.8173 105.088 35.2001 104.686 34.5232 104.416C33.8463 104.146 33.1231 104.012 32.3949 104.023C31.6666 104.033 30.9475 104.188 30.2787 104.478C29.6099 104.767 29.0045 105.186 28.497 105.711C27.9895 106.236 27.5898 106.856 27.3209 107.536C27.0519 108.216 26.9189 108.942 26.9294 109.674C26.9399 110.405 27.0938 111.128 27.3822 111.8C27.6707 112.471 28.088 113.08 28.6104 113.589V113.589Z" fill="black"/>
<path opacity="0.25" d="M22.803 139.362C25.5366 140.75 35.9667 139.79 35.9667 139.79C35.9667 139.79 30.5323 130.797 27.7987 129.412C27.1467 129.065 26.4323 128.852 25.6974 128.786C24.9625 128.72 24.2218 128.802 23.5187 129.027C22.8157 129.251 22.1643 129.615 21.6029 130.096C21.0414 130.577 20.581 131.165 20.2487 131.827C19.9165 132.489 19.7189 133.211 19.6677 133.95C19.6165 134.689 19.7127 135.432 19.9505 136.133C20.1884 136.835 20.5632 137.482 21.053 138.036C21.5428 138.59 22.1377 139.041 22.803 139.362V139.362Z" fill="black"/>
<path opacity="0.25" d="M20.5797 165.191C23.0417 167.019 33.4838 167.847 33.4838 167.847C33.4838 167.847 29.64 158.059 27.175 156.23C25.9903 155.386 24.5233 155.042 23.0889 155.272C21.6546 155.503 20.3674 156.289 19.5038 157.462C18.6402 158.635 18.2692 160.102 18.4704 161.547C18.6715 162.992 19.4288 164.3 20.5797 165.191V165.191Z" fill="black"/>
<path d="M265.536 174.247C265.536 174.247 258.174 149.137 266.918 130.656C270.586 122.901 271.806 114.192 270.111 105.774C269.299 101.778 268.125 97.8647 266.605 94.0828" stroke="#535461" stroke-width="2" stroke-miterlimit="10"/>
<path d="M272.045 82.4184C272.045 85.4941 266.497 94.4096 266.497 94.4096C266.497 94.4096 260.95 85.4851 260.95 82.4184C260.95 80.9404 261.534 79.5229 262.574 78.4778C263.615 77.4326 265.026 76.8455 266.497 76.8455C267.969 76.8455 269.38 77.4326 270.42 78.4778C271.461 79.5229 272.045 80.9404 272.045 82.4184V82.4184Z" fill="#91DC57"/>
<path d="M281.213 99.4639C279.548 102.048 270.064 106.509 270.064 106.509C270.064 106.509 270.237 95.9894 271.902 93.4083C272.701 92.168 273.958 91.2975 275.397 90.9883C276.835 90.6791 278.337 90.9565 279.572 91.7595C280.806 92.5625 281.673 93.8254 281.981 95.2702C282.289 96.7151 282.012 98.2236 281.213 99.4639V99.4639Z" fill="#91DC57"/>
<path d="M280.813 128.593C278.076 129.978 267.646 129.019 267.646 129.019C267.646 129.019 273.084 120.026 275.817 118.641C277.131 117.975 278.654 117.861 280.052 118.324C281.449 118.787 282.607 119.788 283.269 121.108C283.932 122.428 284.045 123.958 283.584 125.362C283.124 126.765 282.127 127.928 280.813 128.593V128.593Z" fill="#91DC57"/>
<path d="M275.57 150.564C273.105 152.393 262.666 153.22 262.666 153.22C262.666 153.22 266.509 143.433 268.971 141.604C270.155 140.739 271.631 140.379 273.078 140.602C274.524 140.826 275.825 141.614 276.695 142.796C277.565 143.978 277.936 145.458 277.725 146.913C277.514 148.368 276.739 149.68 275.57 150.564V150.564Z" fill="#91DC57"/>
<path d="M258.416 107.096C260.615 109.24 270.851 111.461 270.851 111.461C270.851 111.461 268.345 101.248 266.148 99.1041C265.628 98.5822 265.01 98.1692 264.33 97.8893C263.65 97.6093 262.921 97.4679 262.186 97.4733C261.451 97.4787 260.724 97.6307 260.048 97.9206C259.372 98.2105 258.76 98.6325 258.248 99.162C257.736 99.6915 257.333 100.318 257.064 101.005C256.795 101.692 256.664 102.426 256.68 103.164C256.696 103.903 256.857 104.63 257.155 105.305C257.453 105.98 257.882 106.589 258.416 107.096V107.096Z" fill="#91DC57"/>
<path d="M252.62 132.877C255.357 134.265 265.787 133.306 265.787 133.306C265.787 133.306 260.353 124.313 257.616 122.928C256.964 122.581 256.25 122.368 255.515 122.302C254.78 122.236 254.039 122.317 253.336 122.542C252.633 122.767 251.982 123.131 251.42 123.612C250.859 124.092 250.398 124.681 250.066 125.343C249.734 126.005 249.536 126.726 249.485 127.466C249.434 128.205 249.53 128.947 249.768 129.649C250.006 130.351 250.381 130.997 250.87 131.552C251.36 132.106 251.955 132.557 252.62 132.877V132.877Z" fill="#91DC57"/>
<path d="M250.385 158.706C252.85 160.535 263.289 161.362 263.289 161.362C263.289 161.362 259.446 151.578 256.983 149.746C255.8 148.881 254.324 148.521 252.877 148.744C251.43 148.968 250.13 149.756 249.26 150.938C248.389 152.12 248.019 153.6 248.23 155.055C248.441 156.51 249.215 157.823 250.385 158.706V158.706Z" fill="#91DC57"/>
<path d="M232.327 171.804C232.327 171.804 228.37 158.314 233.07 148.379C235.066 144.226 235.668 139.535 234.786 135.009C234.35 132.863 233.718 130.762 232.9 128.731" stroke="#535461" stroke-width="2" stroke-miterlimit="10"/>
<path d="M235.825 122.454C235.825 124.109 232.841 128.905 232.841 128.905C232.841 128.905 229.856 124.109 229.856 122.454C229.856 121.659 230.171 120.896 230.73 120.334C231.29 119.772 232.049 119.456 232.841 119.456C233.632 119.456 234.391 119.772 234.951 120.334C235.51 120.896 235.825 121.659 235.825 122.454Z" fill="#91DC57"/>
<path d="M240.752 131.615C239.857 133.003 234.759 135.401 234.759 135.401C234.759 135.401 234.852 129.748 235.747 128.36C236.194 127.732 236.864 127.301 237.618 127.157C238.373 127.013 239.153 127.166 239.798 127.586C240.443 128.005 240.901 128.658 241.079 129.408C241.257 130.159 241.14 130.949 240.752 131.615V131.615Z" fill="#91DC57"/>
<path d="M240.537 147.267C239.066 148.01 233.461 147.495 233.461 147.495C233.461 147.495 236.383 142.662 237.851 141.919C238.552 141.6 239.349 141.567 240.074 141.824C240.799 142.081 241.398 142.61 241.744 143.3C242.091 143.99 242.159 144.788 241.934 145.527C241.709 146.266 241.208 146.889 240.537 147.267V147.267Z" fill="#91DC57"/>
<path d="M237.717 159.075C236.395 160.058 230.784 160.502 230.784 160.502C230.784 160.502 232.849 155.244 234.175 154.261C234.487 154.001 234.849 153.808 235.238 153.694C235.628 153.579 236.036 153.546 236.438 153.595C236.841 153.645 237.229 153.776 237.58 153.982C237.93 154.187 238.235 154.462 238.476 154.789C238.717 155.117 238.889 155.49 238.982 155.887C239.074 156.284 239.085 156.695 239.014 157.096C238.943 157.497 238.791 157.88 238.568 158.22C238.345 158.56 238.056 158.851 237.717 159.075V159.075Z" fill="#91DC57"/>
<path d="M228.501 135.722C229.695 136.873 235.183 138.066 235.183 138.066C235.183 138.066 233.837 132.578 232.655 131.426C232.379 131.13 232.047 130.894 231.677 130.731C231.307 130.568 230.908 130.482 230.505 130.478C230.101 130.475 229.701 130.553 229.328 130.71C228.956 130.866 228.618 131.096 228.337 131.387C228.056 131.678 227.836 132.023 227.692 132.402C227.547 132.781 227.48 133.185 227.496 133.59C227.511 133.995 227.608 134.393 227.781 134.76C227.954 135.126 228.199 135.454 228.501 135.722V135.722Z" fill="#91DC57"/>
<path d="M225.38 149.572C226.851 150.315 232.456 149.803 232.456 149.803C232.456 149.803 229.534 144.97 228.063 144.224C227.362 143.906 226.565 143.872 225.84 144.129C225.114 144.387 224.516 144.916 224.169 145.606C223.823 146.296 223.755 147.093 223.98 147.832C224.205 148.571 224.705 149.195 225.377 149.572H225.38Z" fill="#91DC57"/>
<path d="M224.186 163.455C225.508 164.438 231.119 164.882 231.119 164.882C231.119 164.882 229.044 159.621 227.731 158.637C227.094 158.202 226.313 158.031 225.553 158.161C224.793 158.291 224.112 158.711 223.654 159.334C223.195 159.957 222.995 160.734 223.094 161.502C223.193 162.27 223.585 162.97 224.186 163.455V163.455Z" fill="#91DC57"/>
<path opacity="0.1" d="M78.9883 14.2935H76.9351C77.1293 14.3024 77.3233 14.2716 77.5053 14.2031C77.6874 14.1346 77.8537 14.0297 77.9943 13.8948C78.1348 13.7599 78.2467 13.5977 78.3232 13.4182C78.3996 13.2386 78.439 13.0454 78.439 12.8501C78.439 12.6548 78.3996 12.4615 78.3232 12.2819C78.2467 12.1024 78.1348 11.9402 77.9943 11.8053C77.8537 11.6704 77.6874 11.5655 77.5053 11.497C77.3233 11.4285 77.1293 11.3977 76.9351 11.4066H60.3036C60.1094 11.3977 59.9154 11.4285 59.7334 11.497C59.5513 11.5655 59.385 11.6704 59.2444 11.8053C59.1038 11.9402 58.992 12.1024 58.9155 12.2819C58.8391 12.4615 58.7997 12.6548 58.7997 12.8501C58.7997 13.0454 58.8391 13.2386 58.9155 13.4182C58.992 13.5977 59.1038 13.7599 59.2444 13.8948C59.385 14.0297 59.5513 14.1346 59.7334 14.2031C59.9154 14.2716 60.1094 14.3024 60.3036 14.2935H62.3568C61.9753 14.2935 61.6094 14.4457 61.3397 14.7167C61.0699 14.9877 60.9184 15.3552 60.9184 15.7384C60.9184 16.1217 61.0699 16.4892 61.3397 16.7602C61.6094 17.0311 61.9753 17.1834 62.3568 17.1834H59.4829C59.2887 17.1745 59.0947 17.2052 58.9127 17.2738C58.7306 17.3423 58.5643 17.4472 58.4237 17.5821C58.2832 17.717 58.1713 17.8791 58.0948 18.0587C58.0184 18.2383 57.979 18.4315 57.979 18.6268C57.979 18.8221 58.0184 19.0154 58.0948 19.1949C58.1713 19.3745 58.2832 19.5366 58.4237 19.6715C58.5643 19.8065 58.7306 19.9113 58.9127 19.9799C59.0947 20.0484 59.2887 20.0791 59.4829 20.0702H76.1144C76.3086 20.0791 76.5026 20.0484 76.6847 19.9799C76.8667 19.9113 77.033 19.8065 77.1736 19.6715C77.3142 19.5366 77.426 19.3745 77.5025 19.1949C77.5789 19.0154 77.6183 18.8221 77.6183 18.6268C77.6183 18.4315 77.5789 18.2383 77.5025 18.0587C77.426 17.8791 77.3142 17.717 77.1736 17.5821C77.033 17.4472 76.8667 17.3423 76.6847 17.2738C76.5026 17.2052 76.3086 17.1745 76.1144 17.1834H78.9883C79.3698 17.1834 79.7356 17.0311 80.0054 16.7602C80.2752 16.4892 80.4267 16.1217 80.4267 15.7384C80.4267 15.3552 80.2752 14.9877 80.0054 14.7167C79.7356 14.4457 79.3698 14.2935 78.9883 14.2935V14.2935Z" fill="#252223"/>
<path opacity="0.1" d="M152.402 50.5668H150.349C150.543 50.5757 150.737 50.545 150.919 50.4764C151.101 50.4079 151.267 50.303 151.408 50.1681C151.548 50.0332 151.66 49.8711 151.737 49.6915C151.813 49.5119 151.853 49.3187 151.853 49.1234C151.853 48.9281 151.813 48.7348 151.737 48.5553C151.66 48.3757 151.548 48.2136 151.408 48.0786C151.267 47.9437 151.101 47.8389 150.919 47.7703C150.737 47.7018 150.543 47.671 150.349 47.6799H133.717C133.523 47.671 133.329 47.7018 133.147 47.7703C132.965 47.8389 132.799 47.9437 132.658 48.0786C132.517 48.2136 132.406 48.3757 132.329 48.5553C132.253 48.7348 132.213 48.9281 132.213 49.1234C132.213 49.3187 132.253 49.5119 132.329 49.6915C132.406 49.8711 132.517 50.0332 132.658 50.1681C132.799 50.303 132.965 50.4079 133.147 50.4764C133.329 50.545 133.523 50.5757 133.717 50.5668H135.77C135.389 50.5668 135.023 50.719 134.753 50.99C134.484 51.261 134.332 51.6285 134.332 52.0118C134.332 52.395 134.484 52.7625 134.753 53.0335C135.023 53.3045 135.389 53.4567 135.77 53.4567H132.897C132.702 53.4478 132.508 53.4785 132.326 53.5471C132.144 53.6156 131.978 53.7205 131.837 53.8554C131.697 53.9903 131.585 54.1524 131.508 54.332C131.432 54.5116 131.393 54.7048 131.393 54.9001C131.393 55.0954 131.432 55.2887 131.508 55.4682C131.585 55.6478 131.697 55.8099 131.837 55.9449C131.978 56.0798 132.144 56.1847 132.326 56.2532C132.508 56.3217 132.702 56.3525 132.897 56.3436H149.528C149.722 56.3525 149.916 56.3217 150.098 56.2532C150.28 56.1847 150.447 56.0798 150.587 55.9449C150.728 55.8099 150.84 55.6478 150.916 55.4682C150.993 55.2887 151.032 55.0954 151.032 54.9001C151.032 54.7048 150.993 54.5116 150.916 54.332C150.84 54.1524 150.728 53.9903 150.587 53.8554C150.447 53.7205 150.28 53.6156 150.098 53.5471C149.916 53.4785 149.722 53.4478 149.528 53.4567H152.402C152.591 53.4567 152.778 53.4193 152.952 53.3467C153.127 53.2741 153.285 53.1677 153.419 53.0335C153.553 52.8993 153.659 52.74 153.731 52.5647C153.803 52.3894 153.84 52.2015 153.84 52.0118C153.84 51.822 153.803 51.6341 153.731 51.4588C153.659 51.2835 153.553 51.1242 153.419 50.99C153.285 50.8559 153.127 50.7494 152.952 50.6768C152.778 50.6042 152.591 50.5668 152.402 50.5668V50.5668Z" fill="#252223"/>
<path opacity="0.1" d="M277.444 3.20167H275.391C275.585 3.21056 275.779 3.17982 275.961 3.11129C276.143 3.04276 276.309 2.93787 276.45 2.80296C276.59 2.66805 276.702 2.50591 276.779 2.32635C276.855 2.14679 276.895 1.95352 276.895 1.75823C276.895 1.56294 276.855 1.36967 276.779 1.19011C276.702 1.01055 276.59 0.848411 276.45 0.7135C276.309 0.578588 276.143 0.473702 275.961 0.405173C275.779 0.336645 275.585 0.305899 275.391 0.314792H258.759C258.565 0.305899 258.371 0.336645 258.189 0.405173C258.007 0.473702 257.84 0.578588 257.7 0.7135C257.559 0.848411 257.447 1.01055 257.371 1.19011C257.295 1.36967 257.255 1.56294 257.255 1.75823C257.255 1.95352 257.295 2.14679 257.371 2.32635C257.447 2.50591 257.559 2.66805 257.7 2.80296C257.84 2.93787 258.007 3.04276 258.189 3.11129C258.371 3.17982 258.565 3.21056 258.759 3.20167H260.812C260.431 3.20167 260.065 3.3539 259.795 3.62488C259.525 3.89586 259.374 4.26338 259.374 4.64661C259.374 5.02983 259.525 5.39735 259.795 5.66833C260.065 5.93931 260.431 6.09155 260.812 6.09155H257.938C257.744 6.08265 257.55 6.1134 257.368 6.18192C257.186 6.25045 257.02 6.35534 256.879 6.49025C256.739 6.62516 256.627 6.7873 256.55 6.96686C256.474 7.14642 256.434 7.33969 256.434 7.53498C256.434 7.73027 256.474 7.92354 256.55 8.1031C256.627 8.28266 256.739 8.4448 256.879 8.57971C257.02 8.71462 257.186 8.81951 257.368 8.88804C257.55 8.95657 257.744 8.98731 257.938 8.97842H274.57C274.764 8.98731 274.958 8.95657 275.14 8.88804C275.322 8.81951 275.489 8.71462 275.629 8.57971C275.77 8.4448 275.882 8.28266 275.958 8.1031C276.034 7.92354 276.074 7.73027 276.074 7.53498C276.074 7.33969 276.034 7.14642 275.958 6.96686C275.882 6.7873 275.77 6.62516 275.629 6.49025C275.489 6.35534 275.322 6.25045 275.14 6.18192C274.958 6.1134 274.764 6.08265 274.57 6.09155H277.444C277.825 6.09155 278.191 5.93931 278.461 5.66833C278.731 5.39735 278.882 5.02983 278.882 4.64661C278.882 4.26338 278.731 3.89586 278.461 3.62488C278.191 3.3539 277.825 3.20167 277.444 3.20167V3.20167Z" fill="#252223"/>
<path d="M210.542 158.535C210.661 158.535 210.774 158.488 210.858 158.404C210.942 158.319 210.99 158.205 210.99 158.086C210.99 157.967 210.942 157.852 210.858 157.768C210.774 157.683 210.661 157.636 210.542 157.636C210.423 157.636 210.309 157.683 210.225 157.768C210.141 157.852 210.094 157.967 210.094 158.086C210.094 158.205 210.141 158.319 210.225 158.404C210.309 158.488 210.423 158.535 210.542 158.535Z" fill="#535461"/>
<g opacity="0.5">
<path opacity="0.5" d="M155.789 132.805L151.453 112.3H151.898L151.829 111.953H151.954L149.71 100.861C149.71 100.861 149.823 89.2744 150.37 84.7927C150.769 81.5221 151.402 77.3551 150.94 73.8477C151.003 73.751 151.062 73.6509 151.116 73.5479C151.307 73.1749 151.423 72.7672 151.456 72.3488C151.623 71.3685 151.492 70.3603 151.08 69.4559L155.589 66.626C155.691 66.626 155.795 66.647 155.888 66.653C155.888 66.611 155.846 66.5451 155.813 66.4581C157.946 66.5708 160.06 65.9962 161.845 64.8179C163.63 63.6397 164.995 61.9195 165.739 59.908C166.136 60.5068 166.627 61.0372 167.192 61.4788C168.407 62.3931 170.32 62.597 171.331 61.4608C171.7 61.0074 171.949 60.4683 172.056 59.893C172.116 59.6352 172.158 59.3713 172.194 59.1105C172.767 56.0468 171.51 52.8871 169.89 50.2011C167.864 46.8466 165.175 43.8098 161.758 41.9032C158.341 39.9966 154.148 39.3131 150.45 40.5842C146.753 41.8552 143.028 45.3057 142.691 49.2178C142.524 51.2173 142.763 52.1437 142.351 54.1072C142.145 55.0845 142.59 56.9881 142.584 58.0673C142.547 58.2655 142.523 58.4657 142.512 58.6669C142.452 59.866 142.927 60.9992 143.273 62.1503C138.397 62.3961 125.573 63.3884 121.87 67.1716C117.262 71.8752 105.963 73.5569 105.963 73.5569L87.1473 77.3611L80.5819 80.1611L80.6565 80.4608L80.5252 80.5178C80.5252 80.5178 80.758 81.3902 81.0922 82.5413C79.6275 83.8731 78.6686 85.6744 78.3795 87.6376C78.0154 89.6731 78.2094 92.2931 79.4926 95.6357C79.4926 95.6357 85.9715 107.588 86.4192 112.408L94.5961 128.803C93.8948 130.209 86.8877 144.419 85.682 152.372C85.5867 152.945 85.5219 153.522 85.4881 154.102C85.4881 154.102 85.4433 154.521 85.3329 155.22C84.8524 158.167 83.3334 165.412 79.6239 168.8L79.6717 168.842L79.5642 168.947L79.6478 169.019C78.5347 171.156 80.1432 174.052 80.1432 174.052L81.9726 182.26L84.0198 182.593L86.1745 181.711L87.3682 184.017C87.3682 184.017 96.6642 185.516 99.3053 185.429C101.946 185.342 97.0671 180.845 95.3571 179.511C94.4081 178.774 93.665 175.743 93.1935 173.192C93.4424 172.989 93.6659 172.756 93.859 172.499C93.859 172.499 92.722 166.504 96.145 158.278C97.6043 154.776 99.174 150.75 100.502 147.282C101.215 151.94 101.964 156.74 102.516 160.016C103.319 164.762 103.215 167.658 102.967 169.292C102.921 169.861 102.787 170.421 102.57 170.949C102.581 170.965 102.591 170.981 102.6 170.997C102.584 171.04 102.565 171.081 102.543 171.12C102.561 171.15 102.579 171.177 102.594 171.207C100.726 173.354 102.672 176.855 102.672 176.855L104.501 185.039L106.548 185.372L108.703 184.49L109.897 186.796C109.897 186.796 119.193 188.295 121.834 188.208C124.475 188.121 119.596 183.624 117.883 182.29C116.549 181.25 115.623 175.665 115.28 173.27C115.528 173.246 115.665 173.228 115.665 173.228L115.638 173.063H115.695L114.525 166.192C112.526 164.462 112.803 139.889 112.803 139.889C112.803 139.889 111.762 142.458 111.729 142.251C111.83 141.838 112.206 140.669 113.078 138.177C113.59 136.749 113.968 135.276 114.209 133.777C115.155 127.928 113.391 124.352 113.391 124.352C113.508 123.176 112.275 118.611 110.819 113.748L115.394 104.791C116.03 105.031 116.72 105.089 117.387 104.956L120.852 98.6605C120.852 98.6605 128.014 94.3736 130.064 94.7064C131.971 95.0062 137.946 93.6931 140.256 91.193C140.422 91.0103 140.574 90.8148 140.709 90.6084C142.569 87.7455 141.805 105.555 141.805 105.555L140.811 111.725L140.757 112.067L143.721 112.127L150.704 136.187C150.704 136.187 151.143 144.347 159.078 146.161C167.013 147.974 155.789 132.805 155.789 132.805ZM108.091 104.998C107.661 103.667 107.285 102.519 107.002 101.658L108.479 100.501C108.479 100.501 108.664 100.657 108.977 100.906L108.091 104.998Z" fill="url(#paint0_linear)"/>
</g>
<path d="M115.292 170.667C115.292 170.667 116.304 179.229 117.978 180.53C119.652 181.831 124.403 186.199 121.828 186.295C119.252 186.391 110.189 184.922 110.189 184.922L109.016 182.674L106.927 183.531L104.931 183.207L103.14 175.206C103.14 175.206 100.627 170.685 104.164 168.86C107.7 167.034 115.292 170.667 115.292 170.667Z" fill="#3A384D"/>
<path opacity="0.1" d="M106.79 100.474C106.79 100.474 113.818 121.486 113.552 124.184C113.552 124.184 116.128 129.4 113.287 137.509C110.446 145.618 112.988 139.347 112.988 139.347C112.988 139.347 112.72 163.296 114.666 164.984L115.806 171.681C115.806 171.681 104.847 172.988 103.003 169.603C103.003 169.603 104.429 167.094 103.033 158.811C101.636 150.528 98.9442 132.278 98.9442 132.278L91.6506 90.6473L106.79 100.474Z" fill="black"/>
<path d="M106.817 100.306C106.817 100.306 113.845 121.33 113.579 124.028C113.579 124.028 116.155 129.244 113.314 137.353C110.473 145.462 113.015 139.191 113.015 139.191C113.015 139.191 112.747 163.143 114.692 164.828L115.832 171.528C115.832 171.528 104.874 172.832 103.03 169.447C103.03 169.447 104.456 166.938 103.06 158.655C101.663 150.372 98.9681 132.113 98.9681 132.113L91.6775 90.4795L106.817 100.306Z" fill="#BEC7DE"/>
<path opacity="0.1" d="M93.486 91.5707L100.633 132.383C100.633 132.383 103.319 150.642 104.725 158.925C106.13 167.208 104.695 169.717 104.695 169.717C105.232 170.704 106.536 171.288 108.118 171.627C105.898 171.366 103.895 170.757 103.197 169.474C103.197 169.474 104.626 166.965 103.23 158.682C101.833 150.399 99.1382 132.14 99.1382 132.14L91.8446 90.5065L93.486 91.5707Z" fill="black"/>
<path d="M93.3755 167.966C93.3755 167.966 94.3842 176.528 96.0614 177.829C97.7386 179.13 102.487 183.498 99.9111 183.594C97.3357 183.69 88.2724 182.221 88.2724 182.221L87.0996 179.973L85.0106 180.833L83.0141 180.506L81.2235 172.505C81.2235 172.505 78.7107 167.984 82.2441 166.159C85.7775 164.333 93.3755 167.966 93.3755 167.966Z" fill="#3A384D"/>
<path opacity="0.1" d="M106.79 100.474C106.79 100.474 113.818 121.486 113.552 124.184C113.552 124.184 116.128 129.4 113.287 137.509C110.446 145.618 112.988 139.347 112.988 139.347C112.988 139.347 112.72 163.296 114.666 164.984L115.806 171.681C115.806 171.681 104.847 172.988 103.003 169.603C103.003 169.603 104.429 167.094 103.033 158.811C101.636 150.528 98.9442 132.278 98.9442 132.278L91.6506 90.6473L106.79 100.474Z" fill="black"/>
<path opacity="0.1" d="M84.5182 81.9477C84.5182 81.9477 76.6963 84.9635 80.9042 95.9295C80.9042 95.9295 87.2219 107.579 87.6606 112.279L95.6585 128.318C95.6585 128.318 87.1294 145.273 86.7504 152.924C86.7504 152.924 85.6104 163.194 81.0086 167.415C81.0086 167.415 90.9075 175.878 94.5931 170.991C94.5931 170.991 93.486 165.158 96.8254 157.129C100.165 149.101 104.125 138.273 104.125 138.273C104.125 138.273 113.702 131.771 107.321 118.395L100.159 88.6118L100.042 81.9088L94.5484 79.9902L84.5182 81.9477Z" fill="black"/>
<path opacity="0.1" d="M84.1601 82.0587C84.1601 82.0587 76.3382 85.0744 80.5461 96.0404C80.5461 96.0404 86.8609 107.693 87.2995 112.393L95.2975 128.432C95.2975 128.432 86.7683 145.384 86.3953 153.037C86.3953 153.037 85.2553 163.305 80.6505 167.529C80.6505 167.529 90.5494 175.992 94.238 171.105C94.238 171.105 93.1279 165.268 96.4673 157.243C99.8067 149.218 103.767 138.375 103.767 138.375C103.767 138.375 113.346 131.873 106.966 118.497L99.8037 88.7138L99.6874 82.0107L94.1963 80.0921L84.1601 82.0587Z" fill="black"/>
<path d="M84.1869 81.8938C84.1869 81.8938 76.3651 84.9126 80.5729 95.8755C80.5729 95.8755 85.2135 104.434 86.8131 109.839C87.5114 112.161 88.4101 114.417 89.499 116.581L95.3243 128.273C95.3243 128.273 86.7952 145.228 86.4192 152.879C86.4192 152.879 85.2792 163.149 80.6744 167.37C80.6744 167.37 90.5733 175.833 94.2619 170.946C94.2619 170.946 93.1517 165.113 96.4911 157.084C99.8306 149.056 103.791 138.216 103.791 138.216C103.791 138.216 113.37 131.714 106.99 118.338L99.8276 88.5549L99.7112 81.8518L94.2201 79.9332L84.1869 81.8938Z" fill="#BEC7DE"/>
<path opacity="0.1" d="M84.1869 81.8938L94.2291 79.9242L95.5392 80.3829L86.1834 82.2145C86.1834 82.2145 78.3616 85.2303 82.5694 96.1963C82.5694 96.1963 87.207 104.755 88.8096 110.16C89.5079 112.482 90.4066 114.737 91.4954 116.902L97.3238 128.593C97.3238 128.593 88.7827 145.543 88.4157 153.193C88.4157 153.193 87.2727 163.464 82.6709 167.685C82.6709 167.685 86.9355 171.33 90.9075 172.454C86.5266 172.364 80.6744 167.358 80.6744 167.358C85.2792 163.137 86.4192 152.867 86.4192 152.867C86.7952 145.216 95.3243 128.261 95.3243 128.261L89.499 116.569C88.4101 114.405 87.5114 112.149 86.8131 109.827C85.2135 104.431 80.5729 95.8635 80.5729 95.8635C76.3651 84.9126 84.1869 81.8938 84.1869 81.8938Z" fill="black"/>
<path d="M116.414 103.235L110.186 115.421C110.186 115.421 112.012 131.657 108.524 132.119C105.035 132.581 106.435 114.3 106.435 114.3L109.792 98.7324L116.414 103.235Z" fill="#BE7C5E"/>
<path d="M150.456 111.161L154.909 132.278C154.909 132.278 165.837 147.078 158.102 145.309C150.367 143.54 149.94 135.575 149.94 135.575L142.479 109.854L150.456 111.161Z" fill="#BE7C5E"/>
<path d="M154.894 67.6602L143.882 74.6151L139.951 64.0359C139.951 64.0359 149.065 64.6594 150.128 61.233C151.19 57.8065 154.894 67.6602 154.894 67.6602Z" fill="#BE7C5E"/>
<path d="M149.239 72.058L148.534 69.0272L137.68 69.6658L133.308 87.2958L141.453 87.5896L146.013 80.4458L148.498 73.4789L149.239 72.058Z" fill="#BE7C5E"/>
<path opacity="0.1" d="M145.484 68.8773L146.38 63.7961C146.38 63.7961 126.292 64.0479 121.801 68.6315C117.31 73.2152 106.298 74.8579 106.298 74.8579L87.9561 78.5632L81.5428 81.2942C81.5428 81.2942 83.3513 88.0992 84.1272 88.5699C84.9031 89.0405 93.5635 81.8728 93.5635 81.8728L96.8463 82.7481L86.1565 94.0378L105.886 113.524L106.25 102.785L108.777 100.801C108.777 100.801 114.785 105.897 117.465 105.124L120.843 98.9872C120.843 98.9872 127.826 94.8083 129.823 95.132C131.682 95.4318 137.507 94.1458 139.757 91.7086C139.915 91.5378 140.059 91.3543 140.187 91.16C142.002 88.369 141.256 105.729 141.256 105.729L140.235 112.076L151.119 112.3L148.934 101.49C148.934 101.49 149.045 90.1977 149.576 85.8269C150.107 81.4561 151.068 75.4455 149.119 71.6983L145.287 75.3616L138.62 86.1117L141.151 76.7526L145.484 68.8773Z" fill="black"/>
<path d="M145.541 68.5416L144.589 63.3284C144.589 63.3284 126.358 63.7122 121.867 68.2958C117.375 72.8794 106.348 74.5192 106.348 74.5192L88.0068 78.2275L81.6204 80.9615C81.6204 80.9615 83.4289 87.7665 84.2048 88.2341C84.9807 88.7018 93.6441 81.54 93.6441 81.54L96.9269 82.4154L86.2371 93.7051L105.966 113.191L106.33 102.45L108.867 100.462C108.867 100.462 114.874 105.558 117.554 104.788L120.933 98.6515C120.933 98.6515 127.877 94.4725 129.885 94.8053C131.745 95.1051 137.57 93.816 139.82 91.3788C139.978 91.208 140.122 91.0245 140.25 90.8302C142.064 88.0393 141.318 105.402 141.318 105.402L140.298 111.749L151.181 111.974L148.997 101.164C148.997 101.164 149.107 89.8679 149.638 85.5001C150.17 81.1323 151.131 75.1158 149.182 71.3715L145.35 75.0198L138.674 85.7609L141.205 76.4018L145.541 68.5416Z" fill="#7FAFF2"/>
<path opacity="0.1" d="M122.547 75.1787C122.547 75.1787 111.681 84.3849 110.544 89.3433Z" fill="black"/>
<path opacity="0.1" d="M134.41 83.1139C134.41 83.1139 126.054 89.4692 124.561 93.5102Z" fill="black"/>
<path opacity="0.1" d="M110.007 92.6829C110.007 92.6829 109.222 96.4961 109.067 98.5286Z" fill="black"/>
<path opacity="0.1" d="M106.035 101.463C106.035 101.463 93.5188 90.1767 91.767 90.4075Z" fill="black"/>
<path opacity="0.1" d="M150.259 61.4248C151.277 58.1452 154.715 67.0367 155.004 67.8011C154.677 67.7826 154.351 67.7466 154.028 67.6932C152.723 67.4834 151.474 67.0087 150.358 66.2979C149.241 65.5872 148.281 64.6553 147.534 63.5592C148.874 63.1366 149.943 62.4681 150.259 61.4248Z" fill="black"/>
<path d="M155.455 67.6273C160.851 67.6273 165.225 63.2331 165.225 57.8125C165.225 52.3919 160.851 47.9977 155.455 47.9977C150.059 47.9977 145.684 52.3919 145.684 57.8125C145.684 63.2331 150.059 67.6273 155.455 67.6273Z" fill="#BE7C5E"/>
<path opacity="0.1" d="M163.39 59.2274C164.157 60.4955 164.855 61.8715 166.04 62.7589C167.225 63.6462 169.09 63.8471 170.075 62.7409C170.433 62.2983 170.675 61.7727 170.779 61.212C171.501 58.1213 170.239 54.9166 168.601 52.1916C166.625 48.921 164.002 45.9622 160.674 44.0976C157.347 42.2329 153.255 41.5704 149.65 42.8115C146.045 44.0526 143.085 47.3682 142.786 51.1814C142.622 53.1299 143.112 55.1175 142.709 57.0331C142.5 58.0313 142.049 58.9816 141.999 60.0009C141.903 61.8925 143.192 63.6522 143.076 65.5438C143.004 66.71 142.41 67.7682 142.046 68.8803C141.151 71.5604 141.635 74.4772 141.45 77.2952C141.264 80.1131 140.038 83.2728 137.352 84.1062C140.321 85.6051 144.416 84.0282 145.625 80.9165C145.992 79.9662 146.126 78.911 146.684 78.0596C147.627 76.6207 149.588 76.0511 150.379 74.5222C151.169 72.9933 150.483 71.1317 149.618 69.6478C148.752 68.1639 147.672 66.671 147.654 64.9532C147.66 64.1145 147.921 63.2975 148.4 62.611C148.88 61.9245 149.557 61.401 150.34 61.1101C151.154 60.8253 152.035 60.8103 152.891 60.7144C155.016 60.4402 157.046 59.6623 158.812 58.445C161.107 56.9371 161.722 56.4695 163.39 59.2274Z" fill="black"/>
<path d="M163.453 58.7988C164.22 60.0698 164.918 61.4428 166.103 62.3332C167.288 63.2235 169.153 63.4214 170.138 62.3152C170.495 61.8722 170.737 61.3468 170.842 60.7863C171.564 57.6956 170.302 54.4909 168.663 51.7659C166.688 48.4923 164.065 45.5365 160.737 43.6719C157.41 41.8073 153.318 41.1477 149.713 42.3858C146.108 43.6239 142.479 46.9905 142.16 50.8036C141.996 52.7522 142.231 53.6545 141.829 55.5671C141.62 56.5654 142.106 58.5649 142.055 59.5782C141.96 61.4698 143.249 63.2295 143.133 65.1211C143.061 66.2873 142.467 67.3455 142.103 68.4547C141.208 71.1377 141.691 74.0546 141.506 76.8725C141.321 79.6904 140.095 82.8471 137.409 83.6805C140.378 85.1794 144.473 83.6025 145.681 80.4908C146.048 79.5435 146.183 78.4883 146.741 77.6369C147.684 76.198 149.644 75.6284 150.435 74.0995C151.226 72.5706 150.54 70.706 149.677 69.2221C148.815 67.7382 147.729 66.2483 147.711 64.5276C147.718 63.6893 147.978 62.873 148.458 62.1871C148.938 61.5012 149.614 60.9781 150.396 60.6874C151.211 60.4026 152.092 60.3876 152.948 60.2917C155.073 60.0161 157.102 59.2384 158.869 58.0223C161.176 56.5085 161.79 56.0438 163.453 58.7988Z" fill="#723647"/>
<path d="M143.176 64.4804L147.321 65.1533C147.643 65.2056 147.947 64.9863 147.999 64.6635C148.051 64.3407 147.831 64.0366 147.509 63.9843L143.364 63.3114C143.042 63.2591 142.739 63.4784 142.687 63.8012C142.635 64.124 142.854 64.4281 143.176 64.4804Z" fill="#252A62"/>
<path d="M134.633 147.327C134.702 152.021 138.644 155.721 143.318 155.721H143.968C144.543 155.719 145.096 155.942 145.508 156.344C145.821 156.638 146.039 157.021 146.132 157.441C146.176 157.61 146.198 157.785 146.198 157.96V166.249C146.194 167.843 146.648 169.404 147.505 170.745C148.751 172.646 149.426 174.867 149.45 177.143V177.143C149.45 177.674 149.556 178.2 149.76 178.69C149.965 179.18 150.264 179.624 150.642 179.996C151.019 180.369 151.466 180.662 151.958 180.858C152.449 181.055 152.974 181.151 153.503 181.142C155.688 181.103 157.401 179.214 157.401 177.017V174.945L158.487 175.071V177.149C158.487 177.679 158.593 178.205 158.797 178.694C159.002 179.183 159.301 179.626 159.678 179.998C160.055 180.37 160.502 180.662 160.993 180.859C161.484 181.055 162.008 181.151 162.537 181.142C164.724 181.103 166.437 179.214 166.437 177.017V175.968C167.52 176.423 173.665 176.423 175.369 175.968L175.832 175.932V177.131C175.83 177.663 175.934 178.19 176.138 178.682C176.342 179.173 176.641 179.618 177.019 179.992C177.396 180.366 177.844 180.66 178.336 180.857C178.828 181.055 179.354 181.151 179.884 181.142C182.069 181.103 183.782 179.214 183.782 177.017V175.296L184.143 175.263V177.152C184.144 177.682 184.25 178.207 184.455 178.696C184.66 179.185 184.96 179.628 185.337 179.999C185.714 180.371 186.161 180.663 186.652 180.859C187.143 181.055 187.667 181.151 188.195 181.142C189.159 181.109 190.079 180.732 190.79 180.079C191.501 179.425 191.957 178.538 192.075 177.577C192.098 177.391 192.11 177.204 192.111 177.017V168.347C192.114 165.369 191.121 162.476 189.291 160.133C188.974 159.719 188.796 159.213 188.784 158.691C188.771 158.168 188.925 157.655 189.222 157.225C191.245 154.249 194.239 149.224 194.14 145.663C194.161 144.697 193.824 143.758 193.194 143.028C193.155 142.983 193.114 142.941 193.075 142.899C190.162 139.835 185.035 142.245 185.48 146.457C185.631 147.868 185.53 149.294 185.181 150.669C184.979 151.445 184.707 152.201 184.367 152.927C184.026 153.655 183.466 154.257 182.766 154.648C182.066 155.039 181.262 155.199 180.466 155.106C179.926 155.04 179.381 155.006 178.837 155.007H162.125C161.144 155.007 160.187 154.699 159.39 154.125C158.592 153.552 157.994 152.741 157.678 151.808C157.508 151.32 157.423 150.806 157.424 150.289V137.218C157.425 136.878 157.357 136.541 157.225 136.227C157.093 135.913 156.899 135.63 156.656 135.392C156.413 135.155 156.125 134.97 155.808 134.847C155.492 134.724 155.155 134.666 154.816 134.676C154.485 134.688 154.161 134.767 153.861 134.907C153.561 135.048 153.292 135.247 153.07 135.494C152.618 135.995 152.367 136.647 152.366 137.323C152.366 137.5 152.332 137.675 152.265 137.839C152.198 138.002 152.099 138.151 151.975 138.276C151.85 138.401 151.702 138.5 151.539 138.567C151.377 138.635 151.202 138.669 151.026 138.669H143.127C142.001 138.669 140.886 138.894 139.847 139.33C138.809 139.767 137.867 140.407 137.076 141.212C136.286 142.018 135.663 142.973 135.244 144.023C134.824 145.073 134.617 146.196 134.633 147.327V147.327Z" fill="#F3AD55"/>
<path d="M184.28 178.144C184.504 179.014 185.013 179.784 185.726 180.328C186.438 180.871 187.313 181.158 188.207 181.142C189.171 181.109 190.091 180.732 190.802 180.079C191.513 179.425 191.969 178.538 192.087 177.577C189.652 176.927 186.315 176.477 184.28 178.144Z" fill="#FBDCA3"/>
<path d="M175.954 178.144C176.178 179.015 176.688 179.784 177.401 180.328C178.114 180.872 178.989 181.158 179.884 181.142C180.845 181.106 181.761 180.727 182.468 180.074C183.176 179.421 183.629 178.536 183.746 177.577C181.341 176.927 178.013 176.477 175.954 178.144Z" fill="#FBDCA3"/>
<path d="M158.615 178.144C158.839 179.014 159.348 179.784 160.061 180.328C160.774 180.871 161.648 181.158 162.543 181.142C163.506 181.109 164.426 180.732 165.137 180.079C165.848 179.425 166.304 178.538 166.422 177.577C163.987 176.927 160.656 176.477 158.615 178.144Z" fill="#FBDCA3"/>
<path d="M149.573 178.144C149.797 179.015 150.307 179.785 151.02 180.328C151.733 180.872 152.608 181.159 153.503 181.142C154.463 181.106 155.379 180.727 156.087 180.074C156.795 179.421 157.248 178.536 157.365 177.577C154.959 176.927 151.623 176.477 149.573 178.144Z" fill="#FBDCA3"/>
<path d="M185.157 150.669C187.966 149.536 191.392 147.462 194.11 145.663C194.131 144.697 193.794 143.758 193.164 143.028C193.126 142.983 193.084 142.941 193.045 142.899C190.132 139.835 185.005 142.245 185.45 146.457C185.603 147.868 185.504 149.294 185.157 150.669V150.669Z" fill="#FBDCA3"/>
<path d="M181.758 155.031C181.758 155.031 174.026 164.81 161.376 155.007Z" fill="#FBDCA3"/>
<path d="M157.401 136.855C157.401 136.855 152.703 143.028 157.401 150.645Z" fill="#FBDCA3"/>
<path d="M146.198 157.912C146.198 157.912 150.337 163.074 146.251 167.181Z" fill="#FBDCA3"/>
<path opacity="0.1" d="M145.836 156.821C146.135 157.12 146.039 157.39 146.135 157.816L159.564 154.282C158.842 153.721 157.944 153.058 157.648 152.183C156.043 153.427 152.858 155.532 145.836 156.821Z" fill="black"/>
<path d="M145.508 156.356C145.821 156.65 146.039 157.033 146.132 157.453L159.23 154.024C158.499 153.457 157.951 152.687 157.654 151.808C156.043 153.064 152.53 155.061 145.508 156.356Z" fill="#383F4D"/>
<path opacity="0.1" d="M157.162 152.534C157.162 152.534 153.064 155.631 146.198 156.59Z" fill="black"/>
<path d="M157.162 152.171C157.162 152.171 153.064 155.268 146.198 156.227Z" fill="#F3AD55"/>
<path opacity="0.1" d="M146.92 152.465C146.92 152.465 140.056 154.644 138.247 147.746L146.92 152.465Z" fill="black"/>
<path d="M146.92 152.102C146.92 152.102 140.056 154.282 138.247 147.384L146.92 152.102Z" fill="#FBDCA3"/>
<path d="M134.633 147.746C135.032 147.746 135.356 147.177 135.356 146.475C135.356 145.773 135.032 145.204 134.633 145.204C134.235 145.204 133.911 145.773 133.911 146.475C133.911 147.177 134.235 147.746 134.633 147.746Z" fill="#383F4D"/>
<path opacity="0.1" d="M189.383 172.613L187.939 160.997C187.939 160.997 192.275 167.892 189.383 172.613Z" fill="black"/>
<path d="M187.578 160.997C187.578 160.997 191.914 167.892 189.022 172.613L187.578 160.997Z" fill="#FBDCA3"/>
</g>
<defs>
<linearGradient id="paint0_linear" x1="75.6625" y1="104.556" x2="166.054" y2="119.098" gradientUnits="userSpaceOnUse">
<stop stop-color="#808080" stop-opacity="0.25"/>
<stop offset="0.54" stop-color="#808080" stop-opacity="0.12"/>
<stop offset="1" stop-color="#808080" stop-opacity="0.1"/>
</linearGradient>
<clipPath id="clip0">
<rect width="285" height="204" fill="white"/>
</clipPath>
</defs>
</svg>
